<mxfile host="app.diagrams.net" modified="2022-04-26T06:05:55.635Z" agent="5.0 (Windows NT 10.0; Win64; x64) AppleWebKit/537.36 (KHTML, like Gecko) Chrome/100.0.4896.127 Safari/537.36" etag="axYCqfA_Dql6uEdckSap" version="17.4.6" type="github">
  <diagram id="QMqiZ2GDBsnpyi7WLgiz" name="Page-1">
    <mxGraphModel dx="2714" dy="893" grid="1" gridSize="10" guides="1" tooltips="1" connect="1" arrows="1" fold="1" page="1" pageScale="1" pageWidth="827" pageHeight="1169" math="0" shadow="0">
      <root>
        <mxCell id="0" />
        <mxCell id="1" parent="0" />
        <mxCell id="o_0oddXOF23FKvagfJal-9" value="" style="rounded=0;whiteSpace=wrap;html=1;fillColor=#f5f5f5;strokeColor=#E6E6E6;gradientDirection=south;sketch=0;fontColor=#333333;fontFamily=阿里巴巴普惠体;fontStyle=0" parent="1" vertex="1">
          <mxGeometry x="-320" y="130" width="1130" height="660" as="geometry" />
        </mxCell>
        <mxCell id="ZttovpieoR-79sJcMYOA-3" value="" style="rounded=1;whiteSpace=wrap;html=1;fontSize=14;strokeColor=none;arcSize=0;shadow=0;opacity=80;fontFamily=阿里巴巴普惠体;fontStyle=0" parent="1" vertex="1">
          <mxGeometry x="-290" y="160" width="1070" height="70" as="geometry" />
        </mxCell>
        <mxCell id="ZttovpieoR-79sJcMYOA-4" value="用户对象层" style="text;html=1;strokeColor=none;fillColor=none;align=center;verticalAlign=middle;whiteSpace=wrap;rounded=0;fontSize=16;fontStyle=0;fontColor=#4D4D4D;fontFamily=阿里巴巴普惠体;" parent="1" vertex="1">
          <mxGeometry x="-261.61" y="180" width="102.5" height="30" as="geometry" />
        </mxCell>
        <mxCell id="ZttovpieoR-79sJcMYOA-5" value="内部普通用户" style="rounded=1;whiteSpace=wrap;html=1;fontSize=14;arcSize=0;fillColor=#dae8fc;strokeColor=#CCE5FF;fontStyle=0;fontFamily=阿里巴巴普惠体;" parent="1" vertex="1">
          <mxGeometry x="-130" y="172.5" width="270" height="45" as="geometry" />
        </mxCell>
        <mxCell id="ZttovpieoR-79sJcMYOA-6" value="内部管理用户" style="rounded=1;whiteSpace=wrap;html=1;fontSize=14;arcSize=0;fillColor=#dae8fc;strokeColor=#CCE5FF;fontStyle=0;fontFamily=阿里巴巴普惠体;" parent="1" vertex="1">
          <mxGeometry x="185" y="172.5" width="265" height="45" as="geometry" />
        </mxCell>
        <mxCell id="ZttovpieoR-79sJcMYOA-7" value="外部用户" style="rounded=1;whiteSpace=wrap;html=1;fontSize=14;arcSize=0;fillColor=#d5e8d4;strokeColor=#82b366;fontStyle=0;fontFamily=阿里巴巴普惠体;" parent="1" vertex="1">
          <mxGeometry x="490" y="172.5" width="260" height="45" as="geometry" />
        </mxCell>
        <mxCell id="ZttovpieoR-79sJcMYOA-9" value="" style="rounded=1;whiteSpace=wrap;html=1;fontSize=14;strokeColor=none;arcSize=0;shadow=0;opacity=80;fontFamily=阿里巴巴普惠体;fontStyle=0" parent="1" vertex="1">
          <mxGeometry x="-290" y="250" width="1070" height="70" as="geometry" />
        </mxCell>
        <mxCell id="ZttovpieoR-79sJcMYOA-10" value="场景层" style="text;html=1;strokeColor=none;fillColor=none;align=center;verticalAlign=middle;whiteSpace=wrap;rounded=0;fontSize=16;fontStyle=0;fontColor=#4D4D4D;fontFamily=阿里巴巴普惠体;" parent="1" vertex="1">
          <mxGeometry x="-250.36" y="268.75" width="80" height="30" as="geometry" />
        </mxCell>
        <mxCell id="ZttovpieoR-79sJcMYOA-11" value="文件查找" style="rounded=1;whiteSpace=wrap;html=1;fontSize=14;fillColor=#dae8fc;strokeColor=#CCE5FF;arcSize=4;fontColor=default;fontStyle=0;fontFamily=阿里巴巴普惠体;" parent="1" vertex="1">
          <mxGeometry x="218.73000000000002" y="262.5" width="155" height="45" as="geometry" />
        </mxCell>
        <mxCell id="ZttovpieoR-79sJcMYOA-12" value="文件协作" style="rounded=1;whiteSpace=wrap;html=1;fontSize=14;fillColor=#dae8fc;strokeColor=#CCE5FF;arcSize=4;fontColor=default;fontStyle=0;fontFamily=阿里巴巴普惠体;" parent="1" vertex="1">
          <mxGeometry x="400.87" y="262.5" width="156.75" height="45" as="geometry" />
        </mxCell>
        <mxCell id="ZttovpieoR-79sJcMYOA-16" value="" style="rounded=1;whiteSpace=wrap;html=1;fontSize=14;strokeColor=none;arcSize=0;shadow=0;glass=0;sketch=0;opacity=80;container=0;fontFamily=阿里巴巴普惠体;fontStyle=0" parent="1" vertex="1">
          <mxGeometry x="-290" y="340" width="1070" height="190" as="geometry" />
        </mxCell>
        <mxCell id="ZttovpieoR-79sJcMYOA-63" value="" style="rounded=0;whiteSpace=wrap;html=1;fontFamily=阿里巴巴普惠体;fontSize=18;strokeWidth=1;fillColor=#FFFFFF;strokeColor=#E6E6E6;fontStyle=0" parent="1" vertex="1">
          <mxGeometry x="-320" y="800" width="1130" height="90" as="geometry" />
        </mxCell>
        <mxCell id="ZttovpieoR-79sJcMYOA-68" value="文件服务1.0业务" style="text;html=1;strokeColor=none;fillColor=none;align=center;verticalAlign=middle;whiteSpace=wrap;rounded=0;fontSize=18;fontStyle=0;fontColor=#4D4D4D;fontFamily=阿里巴巴普惠体;" parent="1" vertex="1">
          <mxGeometry x="-240" y="829.99" width="160" height="30" as="geometry" />
        </mxCell>
        <mxCell id="ZttovpieoR-79sJcMYOA-69" value="文件存储" style="rounded=1;whiteSpace=wrap;html=1;fontSize=14;fillColor=#f5f5f5;fontColor=#333333;strokeColor=none;arcSize=0;fontFamily=阿里巴巴普惠体;fontStyle=0" parent="1" vertex="1">
          <mxGeometry x="-57.269999999999996" y="824.53" width="110" height="40.62" as="geometry" />
        </mxCell>
        <mxCell id="ZttovpieoR-79sJcMYOA-70" value="文件迁移" style="rounded=1;whiteSpace=wrap;html=1;fontSize=14;fillColor=#f5f5f5;fontColor=#333333;strokeColor=none;arcSize=0;fontFamily=阿里巴巴普惠体;fontStyle=0" parent="1" vertex="1">
          <mxGeometry x="82.73" y="824.53" width="107.5" height="40.62" as="geometry" />
        </mxCell>
        <mxCell id="ZttovpieoR-79sJcMYOA-71" value="业务文件打包" style="rounded=1;whiteSpace=wrap;html=1;fontSize=14;fillColor=#f5f5f5;fontColor=#333333;strokeColor=none;arcSize=0;fontFamily=阿里巴巴普惠体;fontStyle=0" parent="1" vertex="1">
          <mxGeometry x="218.73" y="824.53" width="110" height="40.62" as="geometry" />
        </mxCell>
        <mxCell id="o_0oddXOF23FKvagfJal-14" value="" style="rounded=1;whiteSpace=wrap;html=1;fontSize=14;strokeColor=none;arcSize=0;shadow=0;labelBackgroundColor=none;sketch=0;opacity=80;fontFamily=阿里巴巴普惠体;fontStyle=0" parent="1" vertex="1">
          <mxGeometry x="-290" y="550" width="1070" height="220" as="geometry" />
        </mxCell>
        <mxCell id="o_0oddXOF23FKvagfJal-15" value="业务数据层" style="text;html=1;strokeColor=none;fillColor=none;align=center;verticalAlign=middle;whiteSpace=wrap;rounded=0;fontSize=16;fontColor=#4D4D4D;fontStyle=0;fontFamily=阿里巴巴普惠体;" parent="1" vertex="1">
          <mxGeometry x="-257.24" y="639.25" width="93.75" height="30" as="geometry" />
        </mxCell>
        <mxCell id="o_0oddXOF23FKvagfJal-16" value="" style="rounded=1;whiteSpace=wrap;html=1;fontSize=14;fillColor=#F2F6FC;strokeColor=none;fontColor=#333333;arcSize=0;fontFamily=阿里巴巴普惠体;fontStyle=0" parent="1" vertex="1">
          <mxGeometry x="143.85" y="564.25" width="259.77" height="124.5" as="geometry" />
        </mxCell>
        <mxCell id="o_0oddXOF23FKvagfJal-25" value="文件编辑" style="text;html=1;strokeColor=none;fillColor=none;align=center;verticalAlign=middle;whiteSpace=wrap;rounded=0;fontSize=14;horizontal=1;fontStyle=0;fontColor=#4D4D4D;fontFamily=阿里巴巴普惠体;" parent="1" vertex="1">
          <mxGeometry x="241.79999999999995" y="570" width="70" height="30" as="geometry" />
        </mxCell>
        <mxCell id="o_0oddXOF23FKvagfJal-26" value="模板内容" style="rounded=1;whiteSpace=wrap;html=1;fontSize=13;fillColor=#dae8fc;strokeColor=#CCE5FF;arcSize=4;fontStyle=0;fontColor=default;fontFamily=阿里巴巴普惠体;" parent="1" vertex="1">
          <mxGeometry x="157.10000000000002" y="611.75" width="75" height="27.5" as="geometry" />
        </mxCell>
        <mxCell id="o_0oddXOF23FKvagfJal-27" value="文件内容" style="rounded=1;whiteSpace=wrap;html=1;fontSize=13;fillColor=#dae8fc;strokeColor=#CCE5FF;arcSize=4;fontStyle=0;fontColor=default;fontFamily=阿里巴巴普惠体;" parent="1" vertex="1">
          <mxGeometry x="158.12000000000003" y="650" width="72.95" height="26.75" as="geometry" />
        </mxCell>
        <mxCell id="o_0oddXOF23FKvagfJal-28" value="标签数据" style="rounded=1;whiteSpace=wrap;html=1;fontSize=13;fillColor=#dae8fc;strokeColor=#CCE5FF;arcSize=4;fontStyle=0;fontColor=default;fontFamily=阿里巴巴普惠体;" parent="1" vertex="1">
          <mxGeometry x="239.29999999999995" y="611.75" width="75" height="27.5" as="geometry" />
        </mxCell>
        <mxCell id="o_0oddXOF23FKvagfJal-29" value="签章水印" style="rounded=1;whiteSpace=wrap;html=1;fontSize=13;fillColor=#dae8fc;strokeColor=#CCE5FF;arcSize=4;fontStyle=0;fontColor=default;fontFamily=阿里巴巴普惠体;" parent="1" vertex="1">
          <mxGeometry x="239.3" y="650" width="75" height="26.75" as="geometry" />
        </mxCell>
        <mxCell id="zai8BUd0Q1AnX0Q9bWB2-1" value="图片处理" style="rounded=1;whiteSpace=wrap;html=1;fontSize=14;fillColor=#f5f5f5;fontColor=#333333;strokeColor=none;arcSize=0;fontFamily=阿里巴巴普惠体;fontStyle=0" parent="1" vertex="1">
          <mxGeometry x="352.73" y="824.8399999999999" width="110" height="40.62" as="geometry" />
        </mxCell>
        <mxCell id="Q-ltCNPcTRJQ2IzTs-4u-3" value="文件编辑" style="rounded=1;whiteSpace=wrap;html=1;fontSize=14;fillColor=#dae8fc;strokeColor=none;arcSize=4;fontStyle=0;fontFamily=阿里巴巴普惠体;" parent="1" vertex="1">
          <mxGeometry x="48.879999999999995" y="262.5" width="151" height="45" as="geometry" />
        </mxCell>
        <mxCell id="Q-ltCNPcTRJQ2IzTs-4u-4" value="文件浏览" style="rounded=1;whiteSpace=wrap;html=1;fontSize=14;arcSize=4;fillColor=#dae8fc;strokeColor=#CCE5FF;fontStyle=0;fontFamily=阿里巴巴普惠体;" parent="1" vertex="1">
          <mxGeometry x="592" y="261.25" width="158" height="45" as="geometry" />
        </mxCell>
        <mxCell id="Q-ltCNPcTRJQ2IzTs-4u-9" value="使用文件模板" style="rounded=1;whiteSpace=wrap;html=1;fontSize=13;fillColor=#dae8fc;strokeColor=none;arcSize=4;fontStyle=0;fontFamily=阿里巴巴普惠体;" parent="1" vertex="1">
          <mxGeometry x="98.38235294117646" y="418.49733333333336" width="101.49882352941177" height="34.412" as="geometry" />
        </mxCell>
        <mxCell id="ZttovpieoR-79sJcMYOA-18" value="文件加密管理" style="rounded=1;whiteSpace=wrap;html=1;fontSize=14;fillColor=#fff2cc;strokeColor=#d6b656;fontColor=default;arcSize=4;fontStyle=0;fontFamily=阿里巴巴普惠体;" parent="1" vertex="1">
          <mxGeometry x="208.49823529411765" y="367.03866666666664" width="101.49882352941177" height="34.412" as="geometry" />
        </mxCell>
        <mxCell id="Q-ltCNPcTRJQ2IzTs-4u-6" value="文件解密" style="rounded=1;whiteSpace=wrap;html=1;fontSize=14;fillColor=#fff2cc;strokeColor=#d6b656;fontColor=default;arcSize=4;fontStyle=0;fontFamily=阿里巴巴普惠体;" parent="1" vertex="1">
          <mxGeometry x="318.49882352941177" y="367.03866666666664" width="101.49882352941177" height="34.412" as="geometry" />
        </mxCell>
        <mxCell id="Q-ltCNPcTRJQ2IzTs-4u-7" value="多版本管理" style="rounded=1;whiteSpace=wrap;html=1;fontSize=13;fillColor=#dae8fc;strokeColor=none;arcSize=4;fontStyle=0;fontFamily=阿里巴巴普惠体;" parent="1" vertex="1">
          <mxGeometry x="208.49823529411765" y="417.9073333333333" width="101.49882352941177" height="34.412" as="geometry" />
        </mxCell>
        <mxCell id="Q-ltCNPcTRJQ2IzTs-4u-8" value="文件签章水印" style="rounded=1;whiteSpace=wrap;html=1;fontSize=13;fillColor=#dae8fc;strokeColor=none;arcSize=4;fontStyle=0;fontFamily=阿里巴巴普惠体;" parent="1" vertex="1">
          <mxGeometry x="318.49882352941177" y="417.9073333333333" width="101.49882352941177" height="34.412" as="geometry" />
        </mxCell>
        <mxCell id="Q-ltCNPcTRJQ2IzTs-4u-10" value="文件模板编辑" style="rounded=1;whiteSpace=wrap;html=1;fontSize=14;fillColor=#fff2cc;strokeColor=#d6b656;fontColor=default;arcSize=4;fontStyle=0;fontFamily=阿里巴巴普惠体;" parent="1" vertex="1">
          <mxGeometry x="98.38235294117646" y="367.0466666666667" width="101.49882352941177" height="34.412" as="geometry" />
        </mxCell>
        <mxCell id="Q-ltCNPcTRJQ2IzTs-4u-11" value="内部成员分享" style="rounded=1;whiteSpace=wrap;html=1;fontSize=13;fillColor=#dae8fc;strokeColor=none;arcSize=4;fontStyle=0;fontFamily=阿里巴巴普惠体;" parent="1" vertex="1">
          <mxGeometry x="-13.85294117647058" y="418.49733333333336" width="101.49882352941177" height="34.412" as="geometry" />
        </mxCell>
        <mxCell id="Q-ltCNPcTRJQ2IzTs-4u-12" value="文件权限分配" style="rounded=1;whiteSpace=wrap;html=1;fontSize=14;fillColor=#fff2cc;strokeColor=#d6b656;fontColor=default;arcSize=4;fontStyle=0;fontFamily=阿里巴巴普惠体;" parent="1" vertex="1">
          <mxGeometry x="-13.85294117647058" y="367.04333333333335" width="101.49882352941177" height="34.412" as="geometry" />
        </mxCell>
        <mxCell id="ZttovpieoR-79sJcMYOA-17" value="核心业务层" style="text;html=1;strokeColor=none;fillColor=none;align=center;verticalAlign=middle;whiteSpace=wrap;rounded=0;fontSize=16;fontColor=#4D4D4D;fontStyle=0;fontFamily=阿里巴巴普惠体;" parent="1" vertex="1">
          <mxGeometry x="-259.9970588235294" y="417.91" width="99.26470588235294" height="30" as="geometry" />
        </mxCell>
        <mxCell id="Q-ltCNPcTRJQ2IzTs-4u-28" value="文档统计分析" style="rounded=1;whiteSpace=wrap;html=1;fontSize=14;fillColor=#fff2cc;strokeColor=#d6b656;fontColor=default;arcSize=4;fontStyle=0;dashed=1;fontFamily=阿里巴巴普惠体;" parent="1" vertex="1">
          <mxGeometry x="428.4994117647059" y="367.0386666666667" width="101.49882352941177" height="34.412" as="geometry" />
        </mxCell>
        <mxCell id="Q-ltCNPcTRJQ2IzTs-4u-29" value="文件备份" style="rounded=1;whiteSpace=wrap;html=1;fontSize=13;fillColor=#dae8fc;strokeColor=none;arcSize=4;fontStyle=0;dashed=1;fontFamily=阿里巴巴普惠体;" parent="1" vertex="1">
          <mxGeometry x="428.4994117647059" y="417.90866666666676" width="101.49882352941177" height="34.412" as="geometry" />
        </mxCell>
        <mxCell id="Q-ltCNPcTRJQ2IzTs-4u-45" value="文件统计报告" style="rounded=1;whiteSpace=wrap;html=1;fontSize=13;fillColor=#dae8fc;strokeColor=#CCE5FF;fontColor=default;arcSize=4;fontStyle=0;fontFamily=阿里巴巴普惠体;" parent="1" vertex="1">
          <mxGeometry x="538.5" y="367.0386666666667" width="101.49882352941177" height="34.412" as="geometry" />
        </mxCell>
        <mxCell id="Q-ltCNPcTRJQ2IzTs-4u-59" value="文件信息提取" style="rounded=1;whiteSpace=wrap;html=1;fontSize=13;fillColor=#dae8fc;strokeColor=none;arcSize=4;fontStyle=0;fontFamily=阿里巴巴普惠体;" parent="1" vertex="1">
          <mxGeometry x="538.5" y="417.9086666666667" width="101.49882352941177" height="34.412" as="geometry" />
        </mxCell>
        <mxCell id="Q-ltCNPcTRJQ2IzTs-4u-62" value="文件外部分享" style="rounded=1;whiteSpace=wrap;html=1;fontSize=14;fillColor=#d5e8d4;strokeColor=#82b366;fontColor=default;arcSize=0;fontStyle=0;dashed=1;fontFamily=阿里巴巴普惠体;" parent="1" vertex="1">
          <mxGeometry x="648.5" y="367.0486666666667" width="101.49882352941177" height="34.412" as="geometry" />
        </mxCell>
        <mxCell id="Q-ltCNPcTRJQ2IzTs-4u-63" value="文件分类" style="rounded=1;whiteSpace=wrap;html=1;fontSize=13;fillColor=#dae8fc;strokeColor=none;arcSize=4;fontStyle=0;dashed=1;fontFamily=阿里巴巴普惠体;" parent="1" vertex="1">
          <mxGeometry x="208.49823529411765" y="468.5573333333333" width="101.49882352941177" height="34.412" as="geometry" />
        </mxCell>
        <mxCell id="Q-ltCNPcTRJQ2IzTs-4u-64" value="文件批注" style="rounded=1;whiteSpace=wrap;html=1;fontSize=13;fillColor=#dae8fc;strokeColor=none;arcSize=4;fontStyle=0;dashed=1;fontFamily=阿里巴巴普惠体;" parent="1" vertex="1">
          <mxGeometry x="318.49823529411765" y="468.5573333333333" width="101.49882352941177" height="34.412" as="geometry" />
        </mxCell>
        <mxCell id="Q-ltCNPcTRJQ2IzTs-4u-65" value="多人协作编辑" style="rounded=1;whiteSpace=wrap;html=1;fontSize=13;fillColor=#dae8fc;strokeColor=none;arcSize=4;fontStyle=0;dashed=1;fontFamily=阿里巴巴普惠体;" parent="1" vertex="1">
          <mxGeometry x="-13.851764705882346" y="468.5573333333333" width="101.49882352941177" height="34.412" as="geometry" />
        </mxCell>
        <mxCell id="Q-ltCNPcTRJQ2IzTs-4u-66" value="文件数据采集" style="rounded=1;whiteSpace=wrap;html=1;fontSize=13;fillColor=#dae8fc;strokeColor=none;arcSize=4;fontStyle=0;dashed=1;fontFamily=阿里巴巴普惠体;" parent="1" vertex="1">
          <mxGeometry x="96.14823529411765" y="468.5573333333333" width="101.49882352941177" height="34.412" as="geometry" />
        </mxCell>
        <mxCell id="Q-ltCNPcTRJQ2IzTs-4u-67" value="文件同步更新" style="rounded=1;whiteSpace=wrap;html=1;fontSize=13;fillColor=#dae8fc;strokeColor=none;arcSize=4;fontStyle=0;dashed=1;fontFamily=阿里巴巴普惠体;" parent="1" vertex="1">
          <mxGeometry x="428.49823529411765" y="468.5573333333333" width="101.49882352941177" height="34.412" as="geometry" />
        </mxCell>
        <mxCell id="Q-ltCNPcTRJQ2IzTs-4u-68" value="文件操作记录" style="rounded=1;whiteSpace=wrap;html=1;fontSize=13;fillColor=#dae8fc;strokeColor=none;arcSize=4;fontStyle=0;dashed=1;fontFamily=阿里巴巴普惠体;" parent="1" vertex="1">
          <mxGeometry x="536.9982352941176" y="468.5573333333333" width="101.49882352941177" height="34.412" as="geometry" />
        </mxCell>
        <mxCell id="Q-ltCNPcTRJQ2IzTs-4u-69" value="文件搜索查找" style="rounded=1;whiteSpace=wrap;html=1;fontSize=13;fillColor=#fff2cc;strokeColor=#d6b656;fontColor=default;arcSize=4;fontStyle=0;dashed=1;fontFamily=阿里巴巴普惠体;" parent="1" vertex="1">
          <mxGeometry x="648.4982352941176" y="468.5573333333333" width="101.49882352941177" height="34.412" as="geometry" />
        </mxCell>
        <mxCell id="Q-ltCNPcTRJQ2IzTs-4u-70" value="文件标签管理" style="rounded=1;whiteSpace=wrap;html=1;fontSize=13;fillColor=#fff2cc;strokeColor=#d6b656;fontColor=default;arcSize=4;fontStyle=0;dashed=1;fontFamily=阿里巴巴普惠体;" parent="1" vertex="1">
          <mxGeometry x="648.5" y="417.9086666666667" width="101.49882352941177" height="34.412" as="geometry" />
        </mxCell>
        <mxCell id="Q-ltCNPcTRJQ2IzTs-4u-71" value="" style="rounded=1;whiteSpace=wrap;html=1;fontSize=14;fillColor=#F2F6FC;strokeColor=none;fontColor=#333333;arcSize=0;fontFamily=阿里巴巴普惠体;fontStyle=0" parent="1" vertex="1">
          <mxGeometry x="-130" y="564.25" width="260" height="124.5" as="geometry" />
        </mxCell>
        <mxCell id="Q-ltCNPcTRJQ2IzTs-4u-72" value="文件管理" style="text;html=1;strokeColor=none;fillColor=none;align=center;verticalAlign=middle;whiteSpace=wrap;rounded=0;fontSize=14;horizontal=1;fontStyle=0;fontColor=#4D4D4D;fontFamily=阿里巴巴普惠体;" parent="1" vertex="1">
          <mxGeometry x="-37.269999999999996" y="570" width="70" height="30" as="geometry" />
        </mxCell>
        <mxCell id="Q-ltCNPcTRJQ2IzTs-4u-74" value="文件管理记录" style="rounded=1;whiteSpace=wrap;html=1;fontSize=13;fillColor=#fff2cc;strokeColor=#d6b656;fontStyle=0;arcSize=4;fontColor=default;dashed=1;fontFamily=阿里巴巴普惠体;" parent="1" vertex="1">
          <mxGeometry x="10" y="650" width="100" height="27.5" as="geometry" />
        </mxCell>
        <mxCell id="Q-ltCNPcTRJQ2IzTs-4u-75" value="文件版本记录" style="rounded=1;whiteSpace=wrap;html=1;fontSize=13;fillColor=#fff2cc;strokeColor=#d6b656;fontStyle=0;arcSize=4;fontColor=default;dashed=1;fontFamily=阿里巴巴普惠体;" parent="1" vertex="1">
          <mxGeometry x="10" y="611.25" width="100" height="27.5" as="geometry" />
        </mxCell>
        <mxCell id="Q-ltCNPcTRJQ2IzTs-4u-78" value="批注说明" style="rounded=1;whiteSpace=wrap;html=1;fontSize=13;fillColor=#dae8fc;strokeColor=#CCE5FF;arcSize=4;fontStyle=0;fontColor=default;fontFamily=阿里巴巴普惠体;" parent="1" vertex="1">
          <mxGeometry x="320.84999999999997" y="611.25" width="75" height="27.5" as="geometry" />
        </mxCell>
        <mxCell id="Q-ltCNPcTRJQ2IzTs-4u-79" value="编辑记录" style="rounded=1;whiteSpace=wrap;html=1;fontSize=13;fillColor=#dae8fc;strokeColor=none;arcSize=4;fontStyle=0;dashed=1;fontFamily=阿里巴巴普惠体;" parent="1" vertex="1">
          <mxGeometry x="320.84999999999997" y="650" width="75" height="27.5" as="geometry" />
        </mxCell>
        <mxCell id="Q-ltCNPcTRJQ2IzTs-4u-81" value="" style="rounded=1;whiteSpace=wrap;html=1;fontSize=14;fillColor=#F2F6FC;strokeColor=none;fontColor=#333333;arcSize=0;fontFamily=阿里巴巴普惠体;fontStyle=0" parent="1" vertex="1">
          <mxGeometry x="420" y="564.25" width="120" height="124.5" as="geometry" />
        </mxCell>
        <mxCell id="Q-ltCNPcTRJQ2IzTs-4u-82" value="文件分享" style="text;html=1;strokeColor=none;fillColor=none;align=center;verticalAlign=middle;whiteSpace=wrap;rounded=0;fontSize=14;horizontal=1;fontStyle=0;fontColor=#4D4D4D;fontFamily=阿里巴巴普惠体;" parent="1" vertex="1">
          <mxGeometry x="445" y="570" width="70" height="30" as="geometry" />
        </mxCell>
        <mxCell id="Q-ltCNPcTRJQ2IzTs-4u-85" value="分享记录" style="rounded=1;whiteSpace=wrap;html=1;fontSize=13;fillColor=#dae8fc;strokeColor=none;arcSize=4;fontStyle=0;dashed=1;fontFamily=阿里巴巴普惠体;" parent="1" vertex="1">
          <mxGeometry x="442.50000000000006" y="611.75" width="75" height="27.5" as="geometry" />
        </mxCell>
        <mxCell id="Q-ltCNPcTRJQ2IzTs-4u-86" value="查看记录" style="rounded=1;whiteSpace=wrap;html=1;fontSize=13;fillColor=#dae8fc;strokeColor=none;arcSize=4;fontStyle=0;dashed=1;fontFamily=阿里巴巴普惠体;" parent="1" vertex="1">
          <mxGeometry x="442.50000000000006" y="649.25" width="75" height="27.5" as="geometry" />
        </mxCell>
        <mxCell id="Q-ltCNPcTRJQ2IzTs-4u-90" value="文件上传" style="rounded=1;whiteSpace=wrap;html=1;fontSize=14;fillColor=#f5f5f5;fontColor=#333333;strokeColor=none;arcSize=0;fontFamily=阿里巴巴普惠体;fontStyle=0" parent="1" vertex="1">
          <mxGeometry x="487" y="824.53" width="110" height="40.62" as="geometry" />
        </mxCell>
        <mxCell id="Q-ltCNPcTRJQ2IzTs-4u-91" value="文件下载" style="rounded=1;whiteSpace=wrap;html=1;fontSize=14;fillColor=#f5f5f5;fontColor=#333333;strokeColor=none;arcSize=0;fontFamily=阿里巴巴普惠体;fontStyle=0" parent="1" vertex="1">
          <mxGeometry x="620" y="824.53" width="110" height="40.62" as="geometry" />
        </mxCell>
        <mxCell id="MdFNAgGWL3GxQWSpr4tQ-1" value="创建生产文件" style="rounded=1;whiteSpace=wrap;html=1;fontSize=13;fillColor=#dae8fc;strokeColor=none;arcSize=4;fontStyle=0;dashed=1;fontFamily=阿里巴巴普惠体;" parent="1" vertex="1">
          <mxGeometry x="-130.00294117647059" y="419.19733333333335" width="101.49882352941177" height="34.412" as="geometry" />
        </mxCell>
        <mxCell id="MdFNAgGWL3GxQWSpr4tQ-2" value="成员管理" style="rounded=1;whiteSpace=wrap;html=1;fontSize=14;fillColor=#fff2cc;strokeColor=#d6b656;arcSize=4;fontStyle=0;dashed=1;fontFamily=阿里巴巴普惠体;" parent="1" vertex="1">
          <mxGeometry x="-130.00294117647059" y="367.74333333333334" width="101.49882352941177" height="34.412" as="geometry" />
        </mxCell>
        <mxCell id="MdFNAgGWL3GxQWSpr4tQ-3" value="文档内容编辑" style="rounded=1;whiteSpace=wrap;html=1;fontSize=13;fillColor=#dae8fc;strokeColor=none;arcSize=4;fontStyle=0;dashed=1;fontFamily=阿里巴巴普惠体;" parent="1" vertex="1">
          <mxGeometry x="-130.00176470588235" y="469.2573333333333" width="101.49882352941177" height="34.412" as="geometry" />
        </mxCell>
        <mxCell id="MdFNAgGWL3GxQWSpr4tQ-4" value="文件基本信息" style="rounded=1;whiteSpace=wrap;html=1;fontSize=13;fillColor=#dae8fc;strokeColor=#CCE5FF;fontStyle=0;arcSize=4;fontFamily=阿里巴巴普惠体;" parent="1" vertex="1">
          <mxGeometry x="-116.75" y="611.25" width="106.75" height="27.5" as="geometry" />
        </mxCell>
        <mxCell id="MdFNAgGWL3GxQWSpr4tQ-5" value="文件统计信息" style="rounded=1;whiteSpace=wrap;html=1;fontSize=13;fillColor=#dae8fc;strokeColor=#CCE5FF;fontStyle=0;arcSize=4;fontFamily=阿里巴巴普惠体;" parent="1" vertex="1">
          <mxGeometry x="-116.75" y="648.75" width="106.75" height="27.5" as="geometry" />
        </mxCell>
        <mxCell id="MdFNAgGWL3GxQWSpr4tQ-6" value="文件管理" style="rounded=1;whiteSpace=wrap;html=1;fontSize=14;fillColor=#fff2cc;strokeColor=#d6b656;arcSize=4;fontStyle=0;fontFamily=阿里巴巴普惠体;" parent="1" vertex="1">
          <mxGeometry x="-130" y="262.5" width="160" height="45" as="geometry" />
        </mxCell>
        <mxCell id="fZoqwSNH0uX-mrpQ0LSl-6" value="" style="rounded=1;whiteSpace=wrap;html=1;fontSize=14;fillColor=#F2F6FC;strokeColor=none;fontColor=#333333;arcSize=0;fontFamily=阿里巴巴普惠体;fontStyle=0" vertex="1" parent="1">
          <mxGeometry x="560" y="564.25" width="210" height="124.5" as="geometry" />
        </mxCell>
        <mxCell id="fZoqwSNH0uX-mrpQ0LSl-7" value="团队管理" style="text;html=1;strokeColor=none;fillColor=none;align=center;verticalAlign=middle;whiteSpace=wrap;rounded=0;fontSize=14;horizontal=1;fontStyle=0;fontColor=#4D4D4D;fontFamily=阿里巴巴普惠体;" vertex="1" parent="1">
          <mxGeometry x="630" y="570" width="70" height="30" as="geometry" />
        </mxCell>
        <mxCell id="fZoqwSNH0uX-mrpQ0LSl-8" value="团队信息" style="rounded=1;whiteSpace=wrap;html=1;fontSize=13;fillColor=#dae8fc;strokeColor=none;arcSize=4;fontStyle=0;dashed=1;fontFamily=阿里巴巴普惠体;" vertex="1" parent="1">
          <mxGeometry x="582.5" y="611.25" width="75" height="27.5" as="geometry" />
        </mxCell>
        <mxCell id="fZoqwSNH0uX-mrpQ0LSl-9" value="行为记录" style="rounded=1;whiteSpace=wrap;html=1;fontSize=13;fillColor=#dae8fc;strokeColor=none;arcSize=4;fontStyle=0;dashed=1;fontFamily=阿里巴巴普惠体;" vertex="1" parent="1">
          <mxGeometry x="582.5" y="649.63" width="75" height="27.5" as="geometry" />
        </mxCell>
        <mxCell id="fZoqwSNH0uX-mrpQ0LSl-10" value="成员信息" style="rounded=1;whiteSpace=wrap;html=1;fontSize=13;fillColor=#dae8fc;strokeColor=none;arcSize=4;fontStyle=0;dashed=1;fontFamily=阿里巴巴普惠体;" vertex="1" parent="1">
          <mxGeometry x="675" y="611.75" width="75" height="27.5" as="geometry" />
        </mxCell>
        <mxCell id="fZoqwSNH0uX-mrpQ0LSl-11" value="权限信息" style="rounded=1;whiteSpace=wrap;html=1;fontSize=13;fillColor=#dae8fc;strokeColor=none;arcSize=4;fontStyle=0;dashed=1;fontFamily=阿里巴巴普惠体;" vertex="1" parent="1">
          <mxGeometry x="675" y="650.13" width="75" height="27.5" as="geometry" />
        </mxCell>
        <mxCell id="fZoqwSNH0uX-mrpQ0LSl-13" value="" style="rounded=1;whiteSpace=wrap;html=1;fontSize=14;fillColor=#F2F6FC;strokeColor=none;fontColor=#333333;arcSize=0;fontFamily=阿里巴巴普惠体;fontStyle=0" vertex="1" parent="1">
          <mxGeometry x="-132.27" y="705.49" width="902.27" height="54.51" as="geometry" />
        </mxCell>
        <mxCell id="fZoqwSNH0uX-mrpQ0LSl-14" value="文件内容" style="text;html=1;strokeColor=none;fillColor=none;align=center;verticalAlign=middle;whiteSpace=wrap;rounded=0;fontSize=14;horizontal=1;fontStyle=0;fontColor=#4D4D4D;fontFamily=阿里巴巴普惠体;" vertex="1" parent="1">
          <mxGeometry x="-98.38" y="717.74" width="70" height="30" as="geometry" />
        </mxCell>
        <mxCell id="fZoqwSNH0uX-mrpQ0LSl-15" value="文本数据" style="rounded=1;whiteSpace=wrap;html=1;fontSize=13;fillColor=#dae8fc;strokeColor=#CCE5FF;fontStyle=0;arcSize=4;fontFamily=阿里巴巴普惠体;" vertex="1" parent="1">
          <mxGeometry x="-8.370000000000005" y="718.99" width="106.75" height="27.5" as="geometry" />
        </mxCell>
        <mxCell id="fZoqwSNH0uX-mrpQ0LSl-16" value="图片数据&lt;span style=&quot;color: rgba(0, 0, 0, 0); font-family: monospace; font-size: 0px;&quot;&gt;%3CmxGraphModel%3E%3Croot%3E%3CmxCell%20id%3D%220%22%2F%3E%3CmxCell%20id%3D%221%22%20parent%3D%220%22%2F%3E%3CmxCell%20id%3D%222%22%20value%3D%22%E6%96%87%E6%9C%AC%E6%95%B0%E6%8D%AE%22%20style%3D%22rounded%3D1%3BwhiteSpace%3Dwrap%3Bhtml%3D1%3BfontSize%3D13%3BfillColor%3D%23dae8fc%3BstrokeColor%3D%23CCE5FF%3BfontStyle%3D1%3BarcSize%3D4%3BfontFamily%3D%E9%98%BF%E9%87%8C%E5%B7%B4%E5%B7%B4%E6%99%AE%E6%83%A0%E4%BD%93%3B%22%20vertex%3D%221%22%20parent%3D%221%22%3E%3CmxGeometry%20x%3D%22-8.370000000000005%22%20y%3D%22718.99%22%20width%3D%22106.75%22%20height%3D%2227.5%22%20as%3D%22geometry%22%2F%3E%3C%2FmxCell%3E%3C%2Froot%3E%3C%2FmxGraphModel%3E&lt;/span&gt;" style="rounded=1;whiteSpace=wrap;html=1;fontSize=13;fillColor=#dae8fc;strokeColor=#CCE5FF;fontStyle=0;arcSize=4;fontFamily=阿里巴巴普惠体;" vertex="1" parent="1">
          <mxGeometry x="111.97999999999999" y="718.99" width="106.75" height="27.5" as="geometry" />
        </mxCell>
        <mxCell id="fZoqwSNH0uX-mrpQ0LSl-17" value="视频数据" style="rounded=1;whiteSpace=wrap;html=1;fontSize=13;fillColor=#dae8fc;strokeColor=#CCE5FF;fontStyle=0;arcSize=4;fontFamily=阿里巴巴普惠体;" vertex="1" parent="1">
          <mxGeometry x="231.07" y="720.24" width="106.75" height="27.5" as="geometry" />
        </mxCell>
        <mxCell id="fZoqwSNH0uX-mrpQ0LSl-18" value="音频数据" style="rounded=1;whiteSpace=wrap;html=1;fontSize=13;fillColor=#dae8fc;strokeColor=#CCE5FF;fontStyle=0;arcSize=4;fontFamily=阿里巴巴普惠体;" vertex="1" parent="1">
          <mxGeometry x="352.73" y="720.24" width="106.75" height="27.5" as="geometry" />
        </mxCell>
        <mxCell id="fZoqwSNH0uX-mrpQ0LSl-19" value="文档数据" style="rounded=1;whiteSpace=wrap;html=1;fontSize=13;fillColor=#dae8fc;strokeColor=#CCE5FF;fontStyle=0;arcSize=4;fontFamily=阿里巴巴普惠体;" vertex="1" parent="1">
          <mxGeometry x="475.75" y="720.24" width="106.75" height="27.5" as="geometry" />
        </mxCell>
        <mxCell id="fZoqwSNH0uX-mrpQ0LSl-20" value="其他格式文件内容" style="rounded=1;whiteSpace=wrap;html=1;fontSize=13;fillColor=#dae8fc;strokeColor=#CCE5FF;fontStyle=0;arcSize=4;fontFamily=阿里巴巴普惠体;" vertex="1" parent="1">
          <mxGeometry x="611.62" y="720.24" width="128.38" height="27.5" as="geometry" />
        </mxCell>
      </root>
    </mxGraphModel>
  </diagram>
</mxfile>
